<svg width="51" height="49" viewBox="0 0 51 49" fill="none" xmlns="http://www.w3.org/2000/svg">
<path d="M25.5 48.3305C11.4164 48.3305 0 37.5117 0 24.1653C0 10.8188 11.4164 0 25.5 0C39.5836 0 51 10.8188 51 24.1653C51 37.5117 39.5836 48.3305 25.5 48.3305ZM25.5 43.4975C30.9104 43.4975 36.0992 41.4607 39.925 37.8352C43.7507 34.2097 45.9 29.2925 45.9 24.1653C45.9 19.038 43.7507 14.1208 39.925 10.4953C36.0992 6.86983 30.9104 4.83305 25.5 4.83305C20.0896 4.83305 14.9008 6.86983 11.075 10.4953C7.24928 14.1208 5.1 19.038 5.1 24.1653C5.1 29.2925 7.24928 34.2097 11.075 37.8352C14.9008 41.4607 20.0896 43.4975 25.5 43.4975ZM22.9577 33.8314L12.138 23.578L15.7437 20.1611L22.9577 26.9974L37.3805 13.3271L40.9887 16.7441L22.9577 33.8314Z" fill="black"/>
</svg>
